<svg xmlns="http://www.w3.org/2000/svg" xmlns:xlink="http://www.w3.org/1999/xlink" width="500" zoomAndPan="magnify" viewBox="0 0 375 374.999991" height="500" preserveAspectRatio="xMidYMid meet" version="1.0"><defs><clipPath id="id1"><path d="M 0 2.585938 L 369.75 2.585938 L 369.75 372.335938 L 0 372.335938 Z M 0 2.585938 " clip-rule="nonzero"/></clipPath></defs><path fill="rgb(12.159729%, 49.798584%, 58.428955%)" d="M 357.734375 198.398438 L 336.933594 220.429688 C 336.011719 221.378906 335.222656 222.433594 334.570312 223.585938 C 333.917969 224.742188 333.425781 225.960938 333.085938 227.242188 C 332.75 228.523438 332.582031 229.828125 332.582031 231.152344 C 332.578125 232.476562 332.746094 233.78125 333.082031 235.066406 L 340.015625 264.492188 C 340.285156 265.472656 340.453125 266.46875 340.523438 267.484375 C 340.589844 268.5 340.5625 269.511719 340.429688 270.519531 C 340.300781 271.527344 340.070312 272.515625 339.746094 273.476562 C 339.421875 274.441406 339.003906 275.363281 338.496094 276.246094 C 337.988281 277.125 337.398438 277.949219 336.726562 278.710938 C 336.054688 279.476562 335.3125 280.167969 334.503906 280.785156 C 333.699219 281.402344 332.835938 281.933594 331.921875 282.382812 C 331.007812 282.828125 330.0625 283.179688 329.078125 283.441406 L 300.113281 292.066406 C 298.824219 292.421875 297.601562 292.933594 296.445312 293.605469 C 295.289062 294.277344 294.238281 295.085938 293.292969 296.03125 C 292.347656 296.976562 291.539062 298.027344 290.867188 299.183594 C 290.195312 300.339844 289.683594 301.5625 289.328125 302.851562 L 280.703125 331.816406 C 280.441406 332.800781 280.089844 333.75 279.644531 334.660156 C 279.195312 335.574219 278.664062 336.4375 278.046875 337.246094 C 277.429688 338.050781 276.738281 338.792969 275.972656 339.464844 C 275.210938 340.136719 274.386719 340.726562 273.507812 341.234375 C 272.625 341.742188 271.703125 342.160156 270.738281 342.484375 C 269.777344 342.8125 268.789062 343.039062 267.78125 343.167969 C 266.773438 343.300781 265.761719 343.332031 264.746094 343.261719 C 263.730469 343.191406 262.734375 343.023438 261.753906 342.753906 L 232.328125 335.820312 C 231.042969 335.484375 229.738281 335.320312 228.414062 335.320312 C 227.089844 335.320312 225.785156 335.488281 224.503906 335.828125 C 223.222656 336.164062 222.003906 336.660156 220.847656 337.308594 C 219.695312 337.960938 218.640625 338.75 217.691406 339.671875 L 195.660156 360.472656 C 194.941406 361.195312 194.164062 361.839844 193.320312 362.40625 C 192.476562 362.972656 191.585938 363.453125 190.644531 363.84375 C 189.707031 364.234375 188.738281 364.53125 187.742188 364.730469 C 186.746094 364.929688 185.738281 365.027344 184.722656 365.027344 C 183.703125 365.027344 182.695312 364.929688 181.699219 364.730469 C 180.703125 364.53125 179.734375 364.234375 178.796875 363.84375 C 177.855469 363.453125 176.964844 362.972656 176.121094 362.40625 C 175.277344 361.839844 174.5 361.195312 173.78125 360.472656 L 151.90625 339.519531 C 150.953125 338.59375 149.902344 337.808594 148.746094 337.15625 C 147.59375 336.503906 146.375 336.011719 145.09375 335.671875 C 143.8125 335.335938 142.507812 335.164062 141.183594 335.164062 C 139.855469 335.164062 138.550781 335.332031 137.269531 335.667969 L 107.84375 342.601562 C 106.863281 342.867188 105.863281 343.035156 104.851562 343.105469 C 103.835938 343.175781 102.824219 343.144531 101.816406 343.015625 C 100.804688 342.886719 99.820312 342.65625 98.855469 342.332031 C 97.894531 342.003906 96.972656 341.589844 96.089844 341.078125 C 95.207031 340.570312 94.386719 339.980469 93.621094 339.308594 C 92.859375 338.636719 92.167969 337.898438 91.550781 337.089844 C 90.933594 336.28125 90.398438 335.421875 89.953125 334.507812 C 89.507812 333.59375 89.152344 332.644531 88.894531 331.660156 L 80.265625 302.699219 C 79.914062 301.410156 79.398438 300.1875 78.726562 299.03125 C 78.054688 297.875 77.246094 296.824219 76.300781 295.878906 C 75.355469 294.933594 74.304688 294.125 73.148438 293.453125 C 71.996094 292.78125 70.773438 292.265625 69.480469 291.914062 L 40.519531 283.285156 C 39.550781 283.019531 38.617188 282.660156 37.71875 282.210938 C 36.820312 281.757812 35.976562 281.226562 35.183594 280.609375 C 34.386719 279.992188 33.660156 279.308594 33.003906 278.550781 C 32.34375 277.792969 31.761719 276.976562 31.261719 276.105469 C 30.761719 275.234375 30.351562 274.320312 30.03125 273.371094 C 29.710938 272.417969 29.484375 271.445312 29.351562 270.449219 C 29.21875 269.453125 29.1875 268.453125 29.25 267.449219 C 29.316406 266.449219 29.476562 265.460938 29.734375 264.492188 L 36.667969 235.066406 C 37.003906 233.78125 37.171875 232.476562 37.167969 231.152344 C 37.167969 229.828125 37 228.523438 36.664062 227.242188 C 36.324219 225.960938 35.832031 224.742188 35.179688 223.585938 C 34.527344 222.433594 33.738281 221.378906 32.816406 220.429688 L 12.015625 198.398438 C 11.292969 197.683594 10.648438 196.902344 10.082031 196.058594 C 9.515625 195.214844 9.035156 194.324219 8.644531 193.382812 C 8.253906 192.445312 7.957031 191.476562 7.757812 190.480469 C 7.558594 189.484375 7.460938 188.476562 7.460938 187.460938 C 7.460938 186.441406 7.558594 185.4375 7.757812 184.4375 C 7.957031 183.441406 8.253906 182.472656 8.644531 181.535156 C 9.035156 180.597656 9.515625 179.703125 10.082031 178.859375 C 10.648438 178.015625 11.292969 177.238281 12.015625 176.519531 L 32.816406 154.488281 C 33.738281 153.539062 34.527344 152.488281 35.179688 151.332031 C 35.832031 150.179688 36.324219 148.960938 36.664062 147.679688 C 37 146.394531 37.167969 145.09375 37.167969 143.765625 C 37.171875 142.441406 37.003906 141.136719 36.667969 139.855469 L 29.734375 110.429688 C 29.464844 109.445312 29.296875 108.449219 29.226562 107.433594 C 29.160156 106.417969 29.1875 105.40625 29.320312 104.398438 C 29.449219 103.390625 29.679688 102.40625 30.003906 101.441406 C 30.328125 100.476562 30.746094 99.554688 31.253906 98.675781 C 31.761719 97.792969 32.351562 96.972656 33.023438 96.207031 C 33.695312 95.441406 34.4375 94.753906 35.246094 94.132812 C 36.050781 93.515625 36.914062 92.984375 37.828125 92.539062 C 38.742188 92.089844 39.6875 91.738281 40.671875 91.480469 L 69.636719 82.851562 C 70.925781 82.496094 72.148438 81.984375 73.304688 81.3125 C 74.460938 80.640625 75.511719 79.832031 76.457031 78.886719 C 77.402344 77.941406 78.210938 76.890625 78.882812 75.734375 C 79.554688 74.578125 80.066406 73.355469 80.421875 72.066406 L 89.046875 43.101562 C 89.316406 42.136719 89.675781 41.203125 90.125 40.304688 C 90.574219 39.40625 91.109375 38.558594 91.726562 37.765625 C 92.339844 36.972656 93.027344 36.246094 93.785156 35.585938 C 94.542969 34.925781 95.359375 34.347656 96.230469 33.847656 C 97.101562 33.347656 98.011719 32.9375 98.964844 32.617188 C 99.914062 32.292969 100.890625 32.066406 101.886719 31.9375 C 102.882812 31.804688 103.878906 31.773438 104.882812 31.835938 C 105.886719 31.902344 106.871094 32.0625 107.84375 32.320312 L 137.269531 39.25 C 138.550781 39.585938 139.855469 39.753906 141.183594 39.753906 C 142.507812 39.753906 143.8125 39.585938 145.09375 39.246094 C 146.375 38.910156 147.59375 38.414062 148.746094 37.761719 C 149.902344 37.109375 150.953125 36.324219 151.90625 35.398438 L 173.9375 14.601562 C 174.652344 13.878906 175.433594 13.234375 176.277344 12.667969 C 177.121094 12.097656 178.011719 11.621094 178.949219 11.230469 C 179.890625 10.839844 180.855469 10.542969 181.855469 10.34375 C 182.851562 10.144531 183.859375 10.042969 184.875 10.042969 C 185.890625 10.042969 186.898438 10.144531 187.894531 10.34375 C 188.894531 10.542969 189.859375 10.839844 190.800781 11.230469 C 191.738281 11.621094 192.628906 12.097656 193.472656 12.667969 C 194.316406 13.234375 195.097656 13.878906 195.8125 14.601562 L 217.84375 35.398438 C 218.796875 36.324219 219.847656 37.109375 221.003906 37.761719 C 222.15625 38.414062 223.375 38.910156 224.65625 39.246094 C 225.9375 39.585938 227.242188 39.753906 228.566406 39.753906 C 229.894531 39.753906 231.199219 39.585938 232.480469 39.25 L 261.90625 32.320312 C 262.886719 32.050781 263.886719 31.882812 264.898438 31.8125 C 265.914062 31.742188 266.925781 31.773438 267.933594 31.902344 C 268.945312 32.035156 269.929688 32.261719 270.894531 32.589844 C 271.855469 32.914062 272.777344 33.332031 273.660156 33.839844 C 274.539062 34.347656 275.363281 34.9375 276.128906 35.609375 C 276.890625 36.28125 277.582031 37.019531 278.199219 37.828125 C 278.816406 38.636719 279.351562 39.496094 279.796875 40.410156 C 280.242188 41.324219 280.597656 42.273438 280.855469 43.257812 L 289.484375 72.222656 C 289.835938 73.511719 290.347656 74.734375 291.019531 75.890625 C 291.695312 77.046875 292.503906 78.09375 293.449219 79.042969 C 294.394531 79.988281 295.445312 80.796875 296.601562 81.46875 C 297.753906 82.140625 298.976562 82.652344 300.269531 83.003906 L 329.230469 91.632812 C 330.199219 91.902344 331.132812 92.257812 332.03125 92.710938 C 332.929688 93.160156 333.773438 93.695312 334.566406 94.308594 C 335.363281 94.925781 336.089844 95.613281 336.746094 96.371094 C 337.40625 97.128906 337.988281 97.941406 338.488281 98.8125 C 338.988281 99.683594 339.398438 100.597656 339.71875 101.546875 C 340.039062 102.5 340.265625 103.472656 340.398438 104.46875 C 340.53125 105.464844 340.5625 106.464844 340.5 107.46875 C 340.433594 108.46875 340.273438 109.457031 340.015625 110.429688 L 333.082031 139.855469 C 332.746094 141.136719 332.578125 142.441406 332.582031 143.765625 C 332.582031 145.09375 332.75 146.394531 333.085938 147.679688 C 333.425781 148.960938 333.917969 150.179688 334.570312 151.332031 C 335.222656 152.488281 336.011719 153.539062 336.933594 154.488281 L 357.734375 176.519531 C 358.453125 177.238281 359.101562 178.015625 359.667969 178.859375 C 360.234375 179.703125 360.714844 180.597656 361.105469 181.535156 C 361.496094 182.472656 361.792969 183.441406 361.992188 184.4375 C 362.191406 185.4375 362.289062 186.441406 362.289062 187.460938 C 362.289062 188.476562 362.191406 189.484375 361.992188 190.480469 C 361.792969 191.476562 361.496094 192.445312 361.105469 193.382812 C 360.714844 194.324219 360.234375 195.214844 359.667969 196.058594 C 359.101562 196.902344 358.453125 197.683594 357.734375 198.398438 Z M 357.734375 198.398438 " fill-opacity="1" fill-rule="nonzero"/><path fill="rgb(100%, 100%, 100%)" d="M 119.859375 331.660156 L 111.234375 302.699219 C 110.878906 301.410156 110.367188 300.1875 109.695312 299.03125 C 109.023438 297.875 108.214844 296.824219 107.269531 295.878906 C 106.324219 294.933594 105.273438 294.125 104.117188 293.453125 C 102.960938 292.78125 101.738281 292.265625 100.449219 291.914062 L 71.484375 283.285156 C 70.511719 283.027344 69.570312 282.675781 68.664062 282.230469 C 67.757812 281.785156 66.902344 281.257812 66.101562 280.644531 C 65.296875 280.03125 64.5625 279.347656 63.894531 278.589844 C 63.230469 277.835938 62.640625 277.019531 62.132812 276.148438 C 61.625 275.277344 61.207031 274.363281 60.878906 273.410156 C 60.550781 272.453125 60.320312 271.476562 60.183594 270.476562 C 60.046875 269.476562 60.011719 268.472656 60.070312 267.464844 C 60.132812 266.457031 60.289062 265.46875 60.546875 264.492188 L 67.480469 235.066406 C 67.816406 233.78125 67.984375 232.476562 67.980469 231.152344 C 67.980469 229.828125 67.8125 228.523438 67.476562 227.242188 C 67.136719 225.960938 66.644531 224.742188 65.992188 223.585938 C 65.339844 222.433594 64.550781 221.378906 63.628906 220.429688 L 42.828125 198.398438 C 42.105469 197.683594 41.460938 196.902344 40.894531 196.058594 C 40.328125 195.214844 39.847656 194.324219 39.457031 193.382812 C 39.066406 192.445312 38.769531 191.476562 38.570312 190.480469 C 38.371094 189.484375 38.273438 188.476562 38.273438 187.460938 C 38.273438 186.441406 38.371094 185.4375 38.570312 184.4375 C 38.769531 183.441406 39.066406 182.472656 39.457031 181.535156 C 39.847656 180.597656 40.328125 179.703125 40.894531 178.859375 C 41.460938 178.015625 42.105469 177.238281 42.828125 176.519531 L 63.628906 154.488281 C 64.550781 153.539062 65.339844 152.488281 65.992188 151.332031 C 66.644531 150.179688 67.136719 148.960938 67.476562 147.679688 C 67.8125 146.394531 67.980469 145.09375 67.980469 143.765625 C 67.984375 142.441406 67.816406 141.136719 67.480469 139.855469 L 60.546875 110.429688 C 60.277344 109.445312 60.109375 108.449219 60.039062 107.433594 C 59.96875 106.417969 60 105.40625 60.132812 104.398438 C 60.261719 103.390625 60.492188 102.40625 60.816406 101.441406 C 61.140625 100.476562 61.558594 99.554688 62.066406 98.675781 C 62.574219 97.792969 63.164062 96.972656 63.835938 96.207031 C 64.507812 95.441406 65.25 94.753906 66.054688 94.132812 C 66.863281 93.515625 67.726562 92.984375 68.640625 92.539062 C 69.554688 92.089844 70.5 91.738281 71.484375 91.480469 L 100.449219 82.851562 C 101.738281 82.496094 102.960938 81.984375 104.117188 81.3125 C 105.273438 80.640625 106.324219 79.832031 107.269531 78.886719 C 108.214844 77.941406 109.023438 76.890625 109.695312 75.734375 C 110.367188 74.578125 110.878906 73.355469 111.234375 72.066406 L 119.859375 43.101562 C 120.726562 40.300781 122.265625 37.9375 124.484375 36.015625 L 107.84375 32.320312 C 106.863281 32.050781 105.863281 31.882812 104.851562 31.8125 C 103.835938 31.742188 102.824219 31.773438 101.816406 31.902344 C 100.804688 32.035156 99.820312 32.261719 98.855469 32.589844 C 97.894531 32.914062 96.972656 33.332031 96.089844 33.839844 C 95.207031 34.347656 94.386719 34.9375 93.621094 35.609375 C 92.859375 36.28125 92.167969 37.019531 91.550781 37.828125 C 90.933594 38.636719 90.398438 39.496094 89.953125 40.410156 C 89.507812 41.324219 89.152344 42.273438 88.894531 43.257812 L 80.421875 72.222656 C 80.066406 73.511719 79.554688 74.734375 78.882812 75.890625 C 78.210938 77.046875 77.402344 78.09375 76.457031 79.042969 C 75.511719 79.988281 74.460938 80.796875 73.304688 81.46875 C 72.148438 82.140625 70.925781 82.652344 69.636719 83.003906 L 40.671875 91.632812 C 39.699219 91.890625 38.757812 92.246094 37.851562 92.6875 C 36.945312 93.132812 36.089844 93.660156 35.289062 94.273438 C 34.484375 94.886719 33.75 95.570312 33.082031 96.328125 C 32.417969 97.085938 31.828125 97.898438 31.320312 98.769531 C 30.8125 99.644531 30.394531 100.554688 30.066406 101.511719 C 29.738281 102.464844 29.507812 103.441406 29.371094 104.441406 C 29.234375 105.441406 29.199219 106.445312 29.257812 107.453125 C 29.320312 108.460938 29.476562 109.453125 29.734375 110.429688 L 36.667969 139.855469 C 37.003906 141.136719 37.171875 142.441406 37.167969 143.765625 C 37.167969 145.09375 37 146.394531 36.664062 147.679688 C 36.324219 148.960938 35.832031 150.179688 35.179688 151.332031 C 34.527344 152.488281 33.738281 153.539062 32.816406 154.488281 L 12.015625 176.519531 C 11.292969 177.238281 10.648438 178.015625 10.082031 178.859375 C 9.515625 179.703125 9.035156 180.597656 8.644531 181.535156 C 8.253906 182.472656 7.957031 183.441406 7.757812 184.4375 C 7.558594 185.4375 7.460938 186.441406 7.460938 187.460938 C 7.460938 188.476562 7.558594 189.484375 7.757812 190.480469 C 7.957031 191.476562 8.253906 192.445312 8.644531 193.382812 C 9.035156 194.324219 9.515625 195.214844 10.082031 196.058594 C 10.648438 196.902344 11.292969 197.683594 12.015625 198.398438 L 32.816406 220.429688 C 33.738281 221.378906 34.527344 222.433594 35.179688 223.585938 C 35.832031 224.742188 36.324219 225.960938 36.664062 227.242188 C 37 228.523438 37.167969 229.828125 37.167969 231.152344 C 37.171875 232.476562 37.003906 233.78125 36.667969 235.066406 L 29.734375 264.492188 C 29.464844 265.472656 29.296875 266.46875 29.226562 267.484375 C 29.160156 268.5 29.1875 269.511719 29.320312 270.519531 C 29.449219 271.527344 29.679688 272.515625 30.003906 273.476562 C 30.328125 274.441406 30.746094 275.363281 31.253906 276.246094 C 31.761719 277.125 32.351562 277.949219 33.023438 278.710938 C 33.695312 279.476562 34.4375 280.167969 35.246094 280.785156 C 36.050781 281.402344 36.914062 281.933594 37.828125 282.382812 C 38.742188 282.828125 39.6875 283.179688 40.671875 283.441406 L 69.636719 292.066406 C 70.925781 292.421875 72.148438 292.933594 73.304688 293.605469 C 74.460938 294.277344 75.511719 295.085938 76.457031 296.03125 C 77.402344 296.976562 78.210938 298.027344 78.882812 299.183594 C 79.554688 300.339844 80.066406 301.5625 80.421875 302.851562 L 89.046875 331.816406 C 89.316406 332.785156 89.675781 333.71875 90.125 334.617188 C 90.574219 335.511719 91.109375 336.359375 91.726562 337.152344 C 92.339844 337.945312 93.027344 338.671875 93.785156 339.332031 C 94.542969 339.992188 95.359375 340.570312 96.230469 341.070312 C 97.101562 341.570312 98.011719 341.980469 98.964844 342.304688 C 99.914062 342.625 100.890625 342.851562 101.886719 342.984375 C 102.882812 343.113281 103.878906 343.148438 104.882812 343.082031 C 105.886719 343.019531 106.871094 342.859375 107.84375 342.601562 L 124.484375 338.59375 C 122.292969 336.714844 120.753906 334.40625 119.859375 331.660156 Z M 119.859375 331.660156 " fill-opacity="1" fill-rule="nonzero"/><path fill="rgb(100%, 72.158813%, 0%)" d="M 300.421875 187.460938 C 300.421875 189.351562 300.375 191.242188 300.28125 193.128906 C 300.191406 195.019531 300.050781 196.902344 299.867188 198.785156 C 299.679688 200.667969 299.449219 202.542969 299.171875 204.414062 C 298.894531 206.285156 298.570312 208.148438 298.203125 210 C 297.832031 211.855469 297.417969 213.699219 296.957031 215.535156 C 296.5 217.371094 295.996094 219.191406 295.445312 221 C 294.898438 222.8125 294.304688 224.605469 293.667969 226.386719 C 293.03125 228.167969 292.351562 229.929688 291.625 231.675781 C 290.902344 233.425781 290.136719 235.152344 289.328125 236.863281 C 288.519531 238.570312 287.667969 240.261719 286.777344 241.929688 C 285.886719 243.59375 284.953125 245.242188 283.984375 246.863281 C 283.011719 248.484375 282 250.082031 280.949219 251.652344 C 279.898438 253.226562 278.808594 254.773438 277.683594 256.289062 C 276.554688 257.808594 275.394531 259.300781 274.195312 260.761719 C 272.996094 262.222656 271.757812 263.65625 270.488281 265.054688 C 269.21875 266.457031 267.917969 267.828125 266.578125 269.164062 C 265.242188 270.5 263.871094 271.804688 262.472656 273.074219 C 261.070312 274.34375 259.640625 275.578125 258.175781 276.777344 C 256.714844 277.976562 255.226562 279.140625 253.707031 280.269531 C 252.1875 281.394531 250.640625 282.484375 249.070312 283.53125 C 247.496094 284.582031 245.898438 285.59375 244.277344 286.566406 C 242.65625 287.539062 241.011719 288.472656 239.34375 289.363281 C 237.675781 290.253906 235.988281 291.105469 234.277344 291.914062 C 232.566406 292.722656 230.839844 293.488281 229.09375 294.210938 C 227.347656 294.933594 225.582031 295.613281 223.800781 296.253906 C 222.019531 296.890625 220.226562 297.480469 218.417969 298.03125 C 216.605469 298.578125 214.785156 299.085938 212.949219 299.542969 C 211.117188 300.003906 209.273438 300.417969 207.417969 300.785156 C 205.5625 301.15625 203.699219 301.476562 201.828125 301.753906 C 199.957031 302.035156 198.082031 302.265625 196.199219 302.449219 C 194.320312 302.636719 192.433594 302.773438 190.542969 302.867188 C 188.65625 302.960938 186.765625 303.007812 184.875 303.007812 C 182.984375 303.007812 181.09375 302.960938 179.207031 302.867188 C 177.316406 302.773438 175.429688 302.636719 173.550781 302.449219 C 171.667969 302.265625 169.792969 302.035156 167.921875 301.753906 C 166.050781 301.476562 164.1875 301.15625 162.332031 300.785156 C 160.476562 300.417969 158.632812 300.003906 156.800781 299.542969 C 154.964844 299.085938 153.144531 298.578125 151.332031 298.03125 C 149.523438 297.480469 147.730469 296.890625 145.949219 296.253906 C 144.167969 295.613281 142.402344 294.933594 140.65625 294.210938 C 138.910156 293.488281 137.183594 292.722656 135.472656 291.914062 C 133.761719 291.105469 132.074219 290.253906 130.40625 289.363281 C 128.738281 288.472656 127.09375 287.539062 125.472656 286.566406 C 123.851562 285.59375 122.253906 284.582031 120.679688 283.53125 C 119.109375 282.484375 117.5625 281.394531 116.042969 280.269531 C 114.523438 279.140625 113.035156 277.976562 111.574219 276.777344 C 110.109375 275.578125 108.679688 274.34375 107.277344 273.074219 C 105.878906 271.804688 104.507812 270.5 103.171875 269.164062 C 101.832031 267.828125 100.53125 266.457031 99.261719 265.054688 C 97.992188 263.65625 96.753906 262.222656 95.554688 260.761719 C 94.355469 259.300781 93.191406 257.808594 92.066406 256.289062 C 90.941406 254.773438 89.851562 253.226562 88.800781 251.652344 C 87.75 250.082031 86.738281 248.484375 85.765625 246.863281 C 84.796875 245.242188 83.863281 243.59375 82.972656 241.929688 C 82.082031 240.261719 81.230469 238.570312 80.421875 236.863281 C 79.613281 235.152344 78.847656 233.425781 78.125 231.675781 C 77.398438 229.929688 76.71875 228.167969 76.082031 226.386719 C 75.445312 224.605469 74.851562 222.8125 74.304688 221 C 73.753906 219.191406 73.25 217.371094 72.789062 215.535156 C 72.332031 213.699219 71.917969 211.855469 71.546875 210 C 71.179688 208.148438 70.855469 206.285156 70.578125 204.414062 C 70.300781 202.542969 70.070312 200.667969 69.882812 198.785156 C 69.699219 196.902344 69.558594 195.019531 69.46875 193.128906 C 69.375 191.242188 69.328125 189.351562 69.328125 187.460938 C 69.328125 185.570312 69.375 183.679688 69.46875 181.789062 C 69.558594 179.902344 69.699219 178.015625 69.882812 176.132812 C 70.070312 174.253906 70.300781 172.375 70.578125 170.503906 C 70.855469 168.632812 71.179688 166.773438 71.546875 164.917969 C 71.917969 163.0625 72.332031 161.21875 72.789062 159.382812 C 73.25 157.550781 73.753906 155.726562 74.304688 153.917969 C 74.851562 152.109375 75.445312 150.3125 76.082031 148.53125 C 76.71875 146.753906 77.398438 144.988281 78.125 143.242188 C 78.847656 141.496094 79.613281 139.765625 80.421875 138.058594 C 81.230469 136.347656 82.082031 134.660156 82.972656 132.992188 C 83.863281 131.324219 84.796875 129.679688 85.765625 128.054688 C 86.738281 126.433594 87.75 124.835938 88.800781 123.265625 C 89.851562 121.691406 90.941406 120.148438 92.066406 118.628906 C 93.191406 117.109375 94.355469 115.621094 95.554688 114.15625 C 96.753906 112.695312 97.992188 111.265625 99.261719 109.863281 C 100.53125 108.460938 101.832031 107.09375 103.171875 105.753906 C 104.507812 104.417969 105.878906 103.113281 107.277344 101.84375 C 108.679688 100.574219 110.109375 99.339844 111.574219 98.140625 C 113.035156 96.941406 114.523438 95.777344 116.042969 94.652344 C 117.5625 93.523438 119.109375 92.4375 120.679688 91.386719 C 122.253906 90.335938 123.851562 89.324219 125.472656 88.351562 C 127.09375 87.378906 128.738281 86.449219 130.40625 85.554688 C 132.074219 84.664062 133.761719 83.816406 135.472656 83.007812 C 137.183594 82.199219 138.910156 81.433594 140.65625 80.707031 C 142.402344 79.984375 144.167969 79.304688 145.949219 78.667969 C 147.730469 78.03125 149.523438 77.4375 151.332031 76.886719 C 153.144531 76.339844 154.964844 75.835938 156.800781 75.375 C 158.632812 74.917969 160.476562 74.5 162.332031 74.132812 C 164.1875 73.765625 166.050781 73.441406 167.921875 73.164062 C 169.792969 72.886719 171.667969 72.65625 173.550781 72.46875 C 175.429688 72.285156 177.316406 72.144531 179.207031 72.050781 C 181.09375 71.960938 182.984375 71.914062 184.875 71.914062 C 186.765625 71.914062 188.65625 71.960938 190.542969 72.050781 C 192.433594 72.144531 194.320312 72.285156 196.199219 72.46875 C 198.082031 72.65625 199.957031 72.886719 201.828125 73.164062 C 203.699219 73.441406 205.5625 73.765625 207.417969 74.132812 C 209.273438 74.5 211.117188 74.914062 212.949219 75.375 C 214.785156 75.835938 216.605469 76.339844 218.417969 76.886719 C 220.226562 77.4375 222.019531 78.03125 223.800781 78.667969 C 225.582031 79.304688 227.347656 79.984375 229.09375 80.707031 C 230.839844 81.433594 232.566406 82.199219 234.277344 83.007812 C 235.988281 83.816406 237.675781 84.664062 239.34375 85.554688 C 241.011719 86.449219 242.65625 87.378906 244.277344 88.351562 C 245.898438 89.324219 247.496094 90.335938 249.070312 91.386719 C 250.640625 92.4375 252.1875 93.523438 253.707031 94.652344 C 255.226562 95.777344 256.714844 96.941406 258.175781 98.140625 C 259.640625 99.339844 261.070312 100.574219 262.472656 101.84375 C 263.871094 103.113281 265.242188 104.417969 266.578125 105.753906 C 267.917969 107.09375 269.21875 108.460938 270.488281 109.863281 C 271.757812 111.265625 272.996094 112.695312 274.195312 114.15625 C 275.394531 115.621094 276.554688 117.109375 277.683594 118.628906 C 278.808594 120.148438 279.898438 121.691406 280.949219 123.265625 C 282 124.835938 283.011719 126.433594 283.984375 128.054688 C 284.953125 129.679688 285.886719 131.324219 286.777344 132.992188 C 287.667969 134.660156 288.519531 136.347656 289.328125 138.058594 C 290.136719 139.765625 290.902344 141.496094 291.625 143.242188 C 292.351562 144.988281 293.03125 146.753906 293.667969 148.53125 C 294.304688 150.3125 294.898438 152.109375 295.445312 153.917969 C 295.996094 155.726562 296.5 157.550781 296.960938 159.382812 C 297.417969 161.21875 297.832031 163.0625 298.203125 164.917969 C 298.570312 166.773438 298.894531 168.632812 299.171875 170.503906 C 299.449219 172.375 299.679688 174.253906 299.867188 176.132812 C 300.050781 178.015625 300.191406 179.902344 300.28125 181.789062 C 300.375 183.679688 300.421875 185.570312 300.421875 187.460938 Z M 300.421875 187.460938 " fill-opacity="1" fill-rule="nonzero"/><path fill="rgb(100%, 100%, 100%)" d="M 100.140625 187.460938 C 100.140625 185.730469 100.179688 184 100.257812 182.273438 C 100.335938 180.546875 100.453125 178.820312 100.609375 177.097656 C 100.765625 175.375 100.960938 173.65625 101.191406 171.945312 C 101.425781 170.230469 101.699219 168.523438 102.007812 166.820312 C 102.316406 165.121094 102.664062 163.425781 103.050781 161.742188 C 103.4375 160.054688 103.859375 158.378906 104.320312 156.710938 C 104.78125 155.042969 105.277344 153.386719 105.8125 151.742188 C 106.347656 150.097656 106.921875 148.46875 107.53125 146.847656 C 108.136719 145.230469 108.78125 143.625 109.464844 142.035156 C 110.144531 140.445312 110.859375 138.871094 111.613281 137.3125 C 112.363281 135.757812 113.148438 134.214844 113.96875 132.695312 C 114.789062 131.171875 115.644531 129.667969 116.53125 128.183594 C 117.417969 126.699219 118.339844 125.234375 119.292969 123.792969 C 120.246094 122.351562 121.234375 120.929688 122.25 119.53125 C 123.269531 118.132812 124.316406 116.757812 125.394531 115.40625 C 126.476562 114.054688 127.582031 112.726562 128.722656 111.425781 C 129.859375 110.125 131.027344 108.847656 132.222656 107.601562 C 133.421875 106.351562 134.644531 105.128906 135.894531 103.933594 C 137.144531 102.742188 138.421875 101.574219 139.726562 100.4375 C 141.027344 99.300781 142.355469 98.195312 143.710938 97.117188 C 145.0625 96.039062 146.441406 94.992188 147.839844 93.976562 C 149.238281 92.960938 150.660156 91.976562 152.105469 91.027344 C 153.550781 90.074219 155.015625 89.15625 156.5 88.269531 C 157.984375 87.382812 159.488281 86.53125 161.011719 85.714844 C 162.535156 84.894531 164.078125 84.113281 165.636719 83.363281 C 167.195312 82.613281 168.769531 81.898438 170.359375 81.222656 C 171.953125 80.542969 173.558594 79.898438 175.175781 79.292969 C 176.796875 78.6875 178.429688 78.117188 180.074219 77.585938 C 181.71875 77.050781 183.375 76.554688 185.042969 76.097656 C 186.710938 75.636719 188.386719 75.21875 190.074219 74.832031 C 191.761719 74.449219 193.457031 74.105469 195.15625 73.796875 C 196.859375 73.492188 198.566406 73.222656 200.28125 72.992188 C 198.242188 72.699219 196.191406 72.464844 194.140625 72.28125 C 192.085938 72.101562 190.03125 71.976562 187.96875 71.90625 C 185.910156 71.832031 183.847656 71.816406 181.785156 71.855469 C 179.726562 71.894531 177.667969 71.988281 175.609375 72.140625 C 173.554688 72.289062 171.503906 72.492188 169.460938 72.75 C 167.414062 73.011719 165.378906 73.324219 163.347656 73.691406 C 161.320312 74.0625 159.304688 74.484375 157.296875 74.957031 C 155.292969 75.433594 153.300781 75.964844 151.324219 76.546875 C 149.347656 77.128906 147.386719 77.765625 145.441406 78.453125 C 143.5 79.140625 141.574219 79.878906 139.671875 80.667969 C 137.765625 81.460938 135.886719 82.300781 134.027344 83.191406 C 132.167969 84.082031 130.335938 85.023438 128.527344 86.011719 C 126.71875 87.003906 124.9375 88.039062 123.183594 89.125 C 121.429688 90.210938 119.707031 91.339844 118.015625 92.515625 C 116.324219 93.695312 114.664062 94.914062 113.035156 96.179688 C 111.410156 97.445312 109.816406 98.753906 108.257812 100.105469 C 106.703125 101.457031 105.183594 102.847656 103.699219 104.28125 C 102.21875 105.714844 100.773438 107.183594 99.371094 108.695312 C 97.964844 110.203125 96.601562 111.75 95.28125 113.332031 C 93.960938 114.914062 92.683594 116.53125 91.449219 118.179688 C 90.214844 119.832031 89.023438 121.515625 87.878906 123.230469 C 86.734375 124.945312 85.636719 126.6875 84.585938 128.460938 C 83.535156 130.234375 82.53125 132.035156 81.578125 133.863281 C 80.621094 135.6875 79.71875 137.539062 78.859375 139.414062 C 78.003906 141.292969 77.199219 143.1875 76.445312 145.105469 C 75.691406 147.023438 74.988281 148.960938 74.339844 150.917969 C 73.6875 152.875 73.089844 154.847656 72.546875 156.835938 C 72 158.824219 71.507812 160.824219 71.070312 162.839844 C 70.632812 164.855469 70.25 166.878906 69.921875 168.914062 C 69.589844 170.949219 69.316406 172.992188 69.09375 175.039062 C 68.875 177.089844 68.710938 179.144531 68.601562 181.203125 C 68.488281 183.261719 68.433594 185.320312 68.433594 187.382812 C 68.433594 189.445312 68.488281 191.503906 68.601562 193.5625 C 68.710938 195.621094 68.875 197.675781 69.09375 199.726562 C 69.316406 201.773438 69.589844 203.816406 69.921875 205.851562 C 70.25 207.886719 70.632812 209.910156 71.070312 211.925781 C 71.507812 213.941406 72 215.941406 72.546875 217.929688 C 73.089844 219.917969 73.6875 221.890625 74.339844 223.847656 C 74.988281 225.800781 75.691406 227.738281 76.445312 229.660156 C 77.199219 231.578125 78.003906 233.472656 78.859375 235.347656 C 79.71875 237.226562 80.621094 239.074219 81.578125 240.902344 C 82.53125 242.730469 83.535156 244.53125 84.585938 246.304688 C 85.636719 248.078125 86.734375 249.820312 87.878906 251.535156 C 89.023438 253.25 90.214844 254.933594 91.449219 256.582031 C 92.683594 258.234375 93.960938 259.851562 95.28125 261.433594 C 96.601562 263.015625 97.964844 264.5625 99.371094 266.070312 C 100.773438 267.582031 102.21875 269.050781 103.699219 270.484375 C 105.183594 271.917969 106.703125 273.308594 108.257812 274.660156 C 109.816406 276.011719 111.410156 277.320312 113.035156 278.585938 C 114.664062 279.851562 116.324219 281.070312 118.015625 282.25 C 119.707031 283.425781 121.429688 284.554688 123.183594 285.640625 C 124.9375 286.726562 126.71875 287.761719 128.527344 288.75 C 130.335938 289.742188 132.167969 290.679688 134.027344 291.574219 C 135.886719 292.464844 137.765625 293.304688 139.671875 294.09375 C 141.574219 294.886719 143.5 295.625 145.441406 296.3125 C 147.386719 297 149.347656 297.636719 151.324219 298.21875 C 153.300781 298.800781 155.292969 299.332031 157.296875 299.804688 C 159.304688 300.28125 161.320312 300.703125 163.347656 301.074219 C 165.378906 301.441406 167.414062 301.753906 169.460938 302.011719 C 171.503906 302.273438 173.554688 302.476562 175.609375 302.625 C 177.667969 302.773438 179.726562 302.871094 181.785156 302.910156 C 183.847656 302.949219 185.910156 302.933594 187.96875 302.859375 C 190.03125 302.789062 192.085938 302.664062 194.140625 302.480469 C 196.191406 302.300781 198.242188 302.066406 200.28125 301.773438 C 198.570312 301.542969 196.863281 301.273438 195.160156 300.96875 C 193.460938 300.660156 191.769531 300.316406 190.082031 299.933594 C 188.398438 299.550781 186.722656 299.128906 185.058594 298.671875 C 183.390625 298.214844 181.738281 297.71875 180.09375 297.1875 C 178.449219 296.652344 176.816406 296.085938 175.199219 295.480469 C 173.582031 294.875 171.976562 294.234375 170.386719 293.554688 C 168.796875 292.878906 167.222656 292.164062 165.667969 291.417969 C 164.109375 290.667969 162.570312 289.886719 161.046875 289.070312 C 159.523438 288.253906 158.019531 287.402344 156.535156 286.515625 C 155.050781 285.632812 153.589844 284.714844 152.144531 283.765625 C 150.703125 282.816406 149.28125 281.832031 147.882812 280.820312 C 146.484375 279.804688 145.109375 278.761719 143.753906 277.683594 C 142.402344 276.609375 141.074219 275.503906 139.773438 274.367188 C 138.46875 273.234375 137.195312 272.070312 135.945312 270.875 C 134.691406 269.683594 133.46875 268.464844 132.273438 267.21875 C 131.078125 265.96875 129.910156 264.695312 128.773438 263.398438 C 127.632812 262.097656 126.527344 260.773438 125.445312 259.421875 C 124.367188 258.074219 123.320312 256.699219 122.300781 255.304688 C 121.285156 253.90625 120.296875 252.488281 119.34375 251.046875 C 118.390625 249.609375 117.46875 248.144531 116.582031 246.664062 C 115.691406 245.183594 114.839844 243.679688 114.015625 242.160156 C 113.195312 240.640625 112.410156 239.101562 111.65625 237.546875 C 110.90625 235.992188 110.1875 234.417969 109.507812 232.832031 C 108.824219 231.242188 108.179688 229.640625 107.570312 228.023438 C 106.960938 226.40625 106.386719 224.777344 105.851562 223.136719 C 105.316406 221.492188 104.816406 219.839844 104.351562 218.175781 C 103.890625 216.511719 103.464844 214.835938 103.078125 213.152344 C 102.691406 211.46875 102.34375 209.777344 102.03125 208.078125 C 101.71875 206.375 101.445312 204.671875 101.210938 202.960938 C 100.976562 201.246094 100.78125 199.53125 100.625 197.808594 C 100.464844 196.089844 100.347656 194.367188 100.265625 192.640625 C 100.183594 190.914062 100.144531 189.1875 100.140625 187.460938 Z M 100.140625 187.460938 " fill-opacity="1" fill-rule="nonzero"/><g clip-path="url(#id1)"><path fill="rgb(6.669617%, 9.408569%, 15.289307%)" d="M 363.28125 171.28125 L 342.480469 149.253906 C 341.972656 148.734375 341.542969 148.15625 341.1875 147.523438 C 340.832031 146.890625 340.566406 146.222656 340.390625 145.519531 C 340.214844 144.8125 340.136719 144.097656 340.148438 143.375 C 340.164062 142.648438 340.273438 141.9375 340.476562 141.242188 L 347.410156 111.816406 C 347.566406 111.097656 347.691406 110.378906 347.777344 109.652344 C 347.867188 108.921875 347.921875 108.195312 347.941406 107.460938 C 347.964844 106.730469 347.949219 105.996094 347.902344 105.265625 C 347.855469 104.535156 347.773438 103.808594 347.660156 103.085938 C 347.542969 102.363281 347.394531 101.644531 347.214844 100.9375 C 347.03125 100.226562 346.816406 99.527344 346.570312 98.835938 C 346.324219 98.148438 346.042969 97.472656 345.734375 96.808594 C 345.421875 96.144531 345.082031 95.496094 344.710938 94.863281 C 344.34375 94.234375 343.941406 93.621094 343.515625 93.023438 C 343.085938 92.429688 342.632812 91.855469 342.152344 91.304688 C 341.671875 90.753906 341.164062 90.222656 340.632812 89.71875 C 340.101562 89.214844 339.550781 88.734375 338.976562 88.28125 C 338.398438 87.828125 337.804688 87.402344 337.191406 87.003906 C 336.574219 86.605469 335.941406 86.238281 335.292969 85.898438 C 334.644531 85.558594 333.980469 85.25 333.300781 84.972656 C 332.625 84.695312 331.933594 84.449219 331.234375 84.238281 L 302.269531 75.609375 C 301.613281 75.417969 300.988281 75.148438 300.398438 74.796875 C 299.808594 74.449219 299.273438 74.03125 298.789062 73.546875 C 298.304688 73.0625 297.886719 72.523438 297.535156 71.933594 C 297.1875 71.34375 296.917969 70.722656 296.722656 70.0625 L 288.097656 41.101562 C 287.882812 40.386719 287.636719 39.6875 287.359375 38.996094 C 287.078125 38.308594 286.765625 37.632812 286.421875 36.972656 C 286.078125 36.3125 285.707031 35.671875 285.300781 35.046875 C 284.898438 34.421875 284.464844 33.816406 284.003906 33.234375 C 283.542969 32.652344 283.054688 32.089844 282.539062 31.554688 C 282.023438 31.015625 281.484375 30.503906 280.921875 30.019531 C 280.359375 29.53125 279.777344 29.074219 279.167969 28.640625 C 278.5625 28.210938 277.9375 27.808594 277.292969 27.4375 C 276.648438 27.066406 275.988281 26.726562 275.3125 26.417969 C 274.636719 26.105469 273.945312 25.832031 273.242188 25.585938 C 272.539062 25.34375 271.828125 25.132812 271.105469 24.957031 C 270.382812 24.78125 269.652344 24.636719 268.917969 24.53125 C 268.179688 24.421875 267.441406 24.351562 266.699219 24.3125 C 265.953125 24.277344 265.210938 24.273438 264.46875 24.304688 C 263.726562 24.339844 262.984375 24.40625 262.25 24.511719 C 261.511719 24.613281 260.78125 24.75 260.058594 24.921875 L 231.09375 31.855469 C 230.429688 32.011719 229.757812 32.082031 229.078125 32.074219 C 228.398438 32.0625 227.726562 31.96875 227.070312 31.796875 C 226.410156 31.621094 225.785156 31.371094 225.1875 31.042969 C 224.589844 30.710938 224.042969 30.316406 223.542969 29.855469 L 201.050781 9.054688 C 200.507812 8.550781 199.941406 8.070312 199.355469 7.617188 C 198.765625 7.164062 198.160156 6.738281 197.53125 6.34375 C 196.902344 5.949219 196.257812 5.582031 195.597656 5.246094 C 194.933594 4.910156 194.257812 4.605469 193.566406 4.335938 C 192.878906 4.0625 192.175781 3.824219 191.460938 3.617188 C 190.75 3.414062 190.027344 3.238281 189.300781 3.101562 C 188.570312 2.964844 187.835938 2.859375 187.097656 2.789062 C 186.359375 2.71875 185.617188 2.683594 184.875 2.683594 C 184.132812 2.683594 183.390625 2.71875 182.652344 2.789062 C 181.914062 2.859375 181.179688 2.964844 180.449219 3.101562 C 179.722656 3.238281 179 3.414062 178.289062 3.617188 C 177.574219 3.824219 176.871094 4.0625 176.183594 4.335938 C 175.492188 4.605469 174.816406 4.910156 174.152344 5.246094 C 173.492188 5.582031 172.847656 5.949219 172.21875 6.34375 C 171.589844 6.738281 170.984375 7.164062 170.394531 7.617188 C 169.808594 8.070312 169.242188 8.550781 168.699219 9.054688 L 146.667969 29.855469 C 146.144531 30.355469 145.566406 30.78125 144.933594 31.128906 C 144.296875 31.480469 143.628906 31.742188 142.929688 31.917969 C 142.226562 32.09375 141.511719 32.175781 140.789062 32.167969 C 140.0625 32.15625 139.351562 32.050781 138.65625 31.855469 L 109.691406 24.769531 C 108.964844 24.597656 108.234375 24.460938 107.496094 24.359375 C 106.753906 24.257812 106.011719 24.191406 105.265625 24.160156 C 104.523438 24.128906 103.777344 24.132812 103.03125 24.171875 C 102.285156 24.210938 101.546875 24.285156 100.808594 24.398438 C 100.070312 24.507812 99.335938 24.652344 98.613281 24.832031 C 97.890625 25.007812 97.175781 25.222656 96.472656 25.46875 C 95.765625 25.71875 95.078125 25.996094 94.398438 26.308594 C 93.722656 26.621094 93.058594 26.964844 92.414062 27.34375 C 91.769531 27.71875 91.144531 28.121094 90.539062 28.558594 C 89.933594 28.992188 89.347656 29.457031 88.785156 29.945312 C 88.222656 30.4375 87.6875 30.953125 87.171875 31.492188 C 86.660156 32.035156 86.171875 32.601562 85.714844 33.1875 C 85.253906 33.773438 84.824219 34.382812 84.421875 35.011719 C 84.019531 35.640625 83.648438 36.285156 83.304688 36.949219 C 82.964844 37.613281 82.65625 38.292969 82.382812 38.984375 C 82.105469 39.679688 81.863281 40.382812 81.652344 41.101562 L 73.027344 70.0625 C 72.832031 70.722656 72.5625 71.34375 72.214844 71.933594 C 71.863281 72.523438 71.445312 73.0625 70.960938 73.546875 C 70.476562 74.03125 69.941406 74.449219 69.351562 74.796875 C 68.761719 75.148438 68.136719 75.417969 67.480469 75.609375 L 38.515625 84.238281 C 37.800781 84.449219 37.101562 84.699219 36.410156 84.976562 C 35.71875 85.257812 35.042969 85.566406 34.382812 85.910156 C 33.71875 86.253906 33.078125 86.628906 32.449219 87.03125 C 31.824219 87.433594 31.21875 87.867188 30.632812 88.328125 C 30.046875 88.789062 29.484375 89.277344 28.945312 89.789062 C 28.40625 90.304688 27.894531 90.839844 27.40625 91.402344 C 26.914062 91.964844 26.453125 92.550781 26.019531 93.15625 C 25.585938 93.761719 25.183594 94.386719 24.808594 95.027344 C 24.433594 95.671875 24.089844 96.332031 23.777344 97.007812 C 23.464844 97.683594 23.183594 98.375 22.933594 99.078125 C 22.6875 99.78125 22.472656 100.492188 22.292969 101.214844 C 22.113281 101.9375 21.964844 102.667969 21.851562 103.402344 C 21.742188 104.140625 21.664062 104.878906 21.621094 105.625 C 21.578125 106.367188 21.574219 107.113281 21.601562 107.855469 C 21.628906 108.601562 21.691406 109.339844 21.789062 110.082031 C 21.886719 110.820312 22.019531 111.550781 22.183594 112.277344 L 29.273438 141.242188 C 29.433594 141.902344 29.511719 142.574219 29.503906 143.257812 C 29.496094 143.941406 29.40625 144.609375 29.230469 145.269531 C 29.058594 145.929688 28.804688 146.558594 28.472656 147.152344 C 28.136719 147.75 27.738281 148.292969 27.269531 148.789062 L 6.46875 171.28125 C 5.964844 171.824219 5.484375 172.390625 5.03125 172.980469 C 4.578125 173.566406 4.15625 174.175781 3.757812 174.804688 C 3.363281 175.429688 2.996094 176.074219 2.660156 176.738281 C 2.328125 177.398438 2.023438 178.078125 1.75 178.765625 C 1.480469 179.457031 1.238281 180.160156 1.035156 180.871094 C 0.828125 181.585938 0.65625 182.304688 0.515625 183.035156 C 0.378906 183.765625 0.273438 184.5 0.203125 185.238281 C 0.136719 185.976562 0.101562 186.71875 0.101562 187.460938 C 0.101562 188.203125 0.136719 188.941406 0.203125 189.679688 C 0.273438 190.421875 0.378906 191.15625 0.515625 191.882812 C 0.65625 192.613281 0.828125 193.332031 1.035156 194.046875 C 1.238281 194.761719 1.480469 195.460938 1.75 196.152344 C 2.023438 196.84375 2.328125 197.519531 2.660156 198.179688 C 2.996094 198.84375 3.363281 199.488281 3.757812 200.117188 C 4.15625 200.742188 4.578125 201.351562 5.03125 201.941406 C 5.484375 202.527344 5.964844 203.09375 6.46875 203.636719 L 27.269531 225.667969 C 27.777344 226.183594 28.207031 226.761719 28.5625 227.394531 C 28.917969 228.027344 29.183594 228.695312 29.359375 229.402344 C 29.535156 230.105469 29.613281 230.820312 29.601562 231.546875 C 29.585938 232.269531 29.476562 232.980469 29.273438 233.679688 L 22.339844 263.105469 C 22.183594 263.820312 22.058594 264.542969 21.972656 265.269531 C 21.882812 265.996094 21.828125 266.726562 21.808594 267.457031 C 21.785156 268.191406 21.800781 268.921875 21.847656 269.652344 C 21.894531 270.382812 21.976562 271.109375 22.089844 271.832031 C 22.207031 272.558594 22.355469 273.273438 22.535156 273.984375 C 22.71875 274.691406 22.933594 275.390625 23.179688 276.082031 C 23.425781 276.769531 23.707031 277.449219 24.015625 278.113281 C 24.328125 278.773438 24.667969 279.421875 25.039062 280.054688 C 25.40625 280.6875 25.808594 281.300781 26.234375 281.894531 C 26.664062 282.488281 27.117188 283.0625 27.597656 283.613281 C 28.078125 284.167969 28.585938 284.695312 29.117188 285.199219 C 29.648438 285.707031 30.199219 286.183594 30.773438 286.636719 C 31.351562 287.09375 31.945312 287.519531 32.558594 287.914062 C 33.175781 288.3125 33.808594 288.683594 34.457031 289.023438 C 35.105469 289.359375 35.769531 289.667969 36.449219 289.945312 C 37.125 290.222656 37.816406 290.46875 38.515625 290.679688 L 67.480469 299.308594 C 68.136719 299.5 68.761719 299.773438 69.351562 300.121094 C 69.941406 300.472656 70.476562 300.886719 70.960938 301.371094 C 71.445312 301.855469 71.863281 302.394531 72.214844 302.984375 C 72.5625 303.574219 72.832031 304.199219 73.027344 304.855469 L 81.652344 333.820312 C 81.867188 334.53125 82.113281 335.234375 82.390625 335.921875 C 82.671875 336.613281 82.984375 337.285156 83.328125 337.945312 C 83.671875 338.605469 84.042969 339.25 84.449219 339.871094 C 84.851562 340.496094 85.285156 341.101562 85.746094 341.683594 C 86.207031 342.269531 86.695312 342.828125 87.210938 343.367188 C 87.726562 343.902344 88.265625 344.414062 88.828125 344.902344 C 89.390625 345.386719 89.972656 345.847656 90.582031 346.277344 C 91.1875 346.707031 91.8125 347.109375 92.457031 347.480469 C 93.101562 347.851562 93.761719 348.195312 94.4375 348.503906 C 95.113281 348.8125 95.804688 349.089844 96.507812 349.332031 C 97.210938 349.578125 97.921875 349.785156 98.644531 349.964844 C 99.367188 350.140625 100.097656 350.28125 100.832031 350.390625 C 101.570312 350.496094 102.308594 350.570312 103.050781 350.605469 C 103.796875 350.644531 104.539062 350.644531 105.28125 350.613281 C 106.023438 350.578125 106.765625 350.511719 107.5 350.410156 C 108.238281 350.304688 108.96875 350.167969 109.691406 349.996094 L 138.65625 343.0625 C 139.320312 342.902344 139.992188 342.824219 140.671875 342.832031 C 141.355469 342.835938 142.027344 342.929688 142.6875 343.101562 C 143.34375 343.277344 143.972656 343.53125 144.570312 343.863281 C 145.164062 344.195312 145.710938 344.597656 146.207031 345.066406 L 168.234375 365.863281 C 168.777344 366.371094 169.34375 366.847656 169.933594 367.300781 C 170.519531 367.753906 171.128906 368.179688 171.757812 368.574219 C 172.382812 368.972656 173.027344 369.335938 173.691406 369.671875 C 174.351562 370.007812 175.03125 370.3125 175.71875 370.582031 C 176.410156 370.855469 177.113281 371.09375 177.824219 371.300781 C 178.539062 371.507812 179.257812 371.679688 179.988281 371.816406 C 180.71875 371.957031 181.453125 372.058594 182.191406 372.128906 C 182.929688 372.199219 183.671875 372.234375 184.414062 372.234375 C 185.15625 372.234375 185.894531 372.199219 186.632812 372.128906 C 187.375 372.058594 188.109375 371.957031 188.835938 371.816406 C 189.566406 371.679688 190.285156 371.507812 191 371.300781 C 191.714844 371.09375 192.414062 370.855469 193.105469 370.582031 C 193.796875 370.3125 194.472656 370.007812 195.132812 369.671875 C 195.796875 369.335938 196.441406 368.972656 197.070312 368.574219 C 197.695312 368.179688 198.304688 367.753906 198.894531 367.300781 C 199.480469 366.847656 200.046875 366.371094 200.589844 365.863281 L 222.621094 345.066406 C 223.160156 344.515625 223.765625 344.050781 224.4375 343.671875 C 225.109375 343.296875 225.816406 343.019531 226.566406 342.839844 C 227.316406 342.664062 228.078125 342.59375 228.847656 342.632812 C 229.617188 342.667969 230.363281 342.8125 231.09375 343.0625 L 260.519531 349.996094 C 261.234375 350.148438 261.957031 350.265625 262.683594 350.351562 C 263.410156 350.433594 264.136719 350.488281 264.867188 350.503906 C 265.601562 350.523438 266.332031 350.503906 267.058594 350.457031 C 267.789062 350.40625 268.515625 350.320312 269.238281 350.203125 C 269.960938 350.085938 270.675781 349.9375 271.382812 349.753906 C 272.089844 349.570312 272.789062 349.355469 273.476562 349.105469 C 274.164062 348.859375 274.839844 348.582031 275.503906 348.269531 C 276.164062 347.960938 276.8125 347.621094 277.441406 347.25 C 278.074219 346.878906 278.683594 346.480469 279.28125 346.054688 C 279.875 345.628906 280.445312 345.175781 281 344.695312 C 281.550781 344.214844 282.078125 343.710938 282.585938 343.183594 C 283.089844 342.652344 283.570312 342.101562 284.023438 341.53125 C 284.480469 340.957031 284.90625 340.363281 285.304688 339.753906 C 285.707031 339.140625 286.078125 338.511719 286.417969 337.863281 C 286.761719 337.214844 287.070312 336.554688 287.351562 335.878906 C 287.632812 335.203125 287.878906 334.515625 288.097656 333.820312 L 296.722656 304.855469 C 296.917969 304.199219 297.1875 303.574219 297.535156 302.984375 C 297.886719 302.394531 298.304688 301.855469 298.789062 301.371094 C 299.273438 300.886719 299.808594 300.472656 300.398438 300.121094 C 300.988281 299.773438 301.613281 299.5 302.269531 299.308594 L 331.234375 290.679688 C 331.945312 290.464844 332.644531 290.214844 333.328125 289.929688 C 334.015625 289.648438 334.6875 289.335938 335.347656 288.988281 C 336.003906 288.640625 336.644531 288.265625 337.265625 287.859375 C 337.886719 287.453125 338.488281 287.019531 339.070312 286.558594 C 339.652344 286.09375 340.207031 285.605469 340.746094 285.09375 C 341.28125 284.578125 341.789062 284.039062 342.273438 283.476562 C 342.757812 282.914062 343.214844 282.328125 343.644531 281.722656 C 344.074219 281.117188 344.476562 280.492188 344.847656 279.847656 C 345.21875 279.207031 345.558594 278.546875 345.867188 277.871094 C 346.175781 277.195312 346.453125 276.507812 346.699219 275.804688 C 346.941406 275.105469 347.15625 274.394531 347.332031 273.671875 C 347.511719 272.953125 347.652344 272.222656 347.761719 271.488281 C 347.871094 270.753906 347.949219 270.015625 347.988281 269.273438 C 348.027344 268.53125 348.03125 267.792969 348.003906 267.050781 C 347.972656 266.308594 347.910156 265.566406 347.8125 264.832031 C 347.710938 264.09375 347.578125 263.367188 347.410156 262.640625 L 340.476562 233.679688 C 340.316406 233.015625 340.238281 232.34375 340.246094 231.660156 C 340.253906 230.980469 340.34375 230.308594 340.519531 229.648438 C 340.691406 228.988281 340.945312 228.363281 341.277344 227.765625 C 341.609375 227.171875 342.011719 226.625 342.480469 226.128906 L 363.28125 204.097656 C 363.800781 203.550781 364.296875 202.984375 364.765625 202.390625 C 365.234375 201.796875 365.671875 201.183594 366.082031 200.546875 C 366.492188 199.914062 366.867188 199.261719 367.214844 198.589844 C 367.5625 197.917969 367.878906 197.230469 368.160156 196.53125 C 368.441406 195.828125 368.6875 195.117188 368.902344 194.390625 C 369.113281 193.667969 369.292969 192.933594 369.4375 192.191406 C 369.578125 191.449219 369.6875 190.703125 369.757812 189.953125 C 369.832031 189.199219 369.867188 188.445312 369.867188 187.691406 C 369.867188 186.933594 369.832031 186.179688 369.757812 185.429688 C 369.6875 184.675781 369.578125 183.929688 369.4375 183.1875 C 369.292969 182.445312 369.113281 181.714844 368.902344 180.988281 C 368.6875 180.265625 368.441406 179.550781 368.160156 178.851562 C 367.878906 178.148438 367.5625 177.464844 367.214844 176.792969 C 366.867188 176.121094 366.492188 175.46875 366.082031 174.832031 C 365.671875 174.199219 365.234375 173.585938 364.765625 172.992188 C 364.296875 172.398438 363.800781 171.828125 363.28125 171.28125 Z M 352.03125 193.160156 L 331.234375 215.191406 C 329.878906 216.613281 328.722656 218.183594 327.757812 219.894531 C 326.796875 221.605469 326.058594 223.410156 325.546875 225.308594 C 325.035156 227.207031 324.765625 229.136719 324.738281 231.101562 C 324.710938 233.066406 324.925781 235.003906 325.378906 236.914062 L 332.3125 266.339844 C 332.433594 266.851562 332.503906 267.367188 332.523438 267.890625 C 332.546875 268.414062 332.519531 268.9375 332.441406 269.453125 C 332.363281 269.972656 332.238281 270.480469 332.066406 270.976562 C 331.894531 271.46875 331.675781 271.945312 331.414062 272.398438 C 331.152344 272.851562 330.847656 273.277344 330.507812 273.671875 C 330.164062 274.070312 329.785156 274.429688 329.375 274.757812 C 328.964844 275.082031 328.527344 275.367188 328.0625 275.609375 C 327.597656 275.851562 327.113281 276.046875 326.613281 276.199219 L 297.648438 284.828125 C 295.839844 285.398438 294.125 286.171875 292.503906 287.15625 C 290.882812 288.140625 289.398438 289.300781 288.058594 290.644531 C 286.71875 291.984375 285.554688 293.464844 284.570312 295.085938 C 283.589844 296.707031 282.8125 298.425781 282.242188 300.234375 L 273.613281 329.195312 C 273.464844 329.691406 273.269531 330.167969 273.027344 330.625 C 272.789062 331.082031 272.507812 331.511719 272.1875 331.917969 C 271.867188 332.324219 271.515625 332.695312 271.125 333.035156 C 270.734375 333.375 270.316406 333.675781 269.871094 333.9375 C 269.425781 334.199219 268.960938 334.417969 268.476562 334.59375 C 267.988281 334.765625 267.492188 334.894531 266.980469 334.976562 C 266.472656 335.058594 265.957031 335.09375 265.441406 335.082031 C 264.925781 335.066406 264.414062 335.007812 263.910156 334.898438 L 234.484375 327.964844 C 232.570312 327.507812 230.632812 327.292969 228.671875 327.324219 C 226.707031 327.351562 224.773438 327.621094 222.878906 328.132812 C 220.980469 328.644531 219.175781 329.382812 217.464844 330.34375 C 215.75 331.304688 214.183594 332.464844 212.761719 333.820312 L 190.730469 354.617188 C 190.347656 354.964844 189.941406 355.277344 189.5 355.550781 C 189.0625 355.820312 188.605469 356.050781 188.125 356.238281 C 187.640625 356.425781 187.148438 356.566406 186.640625 356.664062 C 186.132812 356.757812 185.621094 356.804688 185.105469 356.804688 C 184.589844 356.804688 184.078125 356.757812 183.570312 356.664062 C 183.0625 356.566406 182.570312 356.425781 182.089844 356.238281 C 181.609375 356.050781 181.148438 355.820312 180.710938 355.550781 C 180.273438 355.277344 179.863281 354.964844 179.484375 354.617188 L 157.453125 333.820312 C 156.027344 332.464844 154.460938 331.304688 152.75 330.34375 C 151.035156 329.382812 149.230469 328.644531 147.335938 328.132812 C 145.4375 327.621094 143.507812 327.351562 141.542969 327.324219 C 139.578125 327.292969 137.640625 327.507812 135.730469 327.964844 L 106.304688 334.898438 C 105.792969 335.027344 105.273438 335.105469 104.75 335.132812 C 104.222656 335.164062 103.699219 335.140625 103.175781 335.066406 C 102.65625 334.996094 102.144531 334.875 101.648438 334.703125 C 101.148438 334.53125 100.671875 334.3125 100.214844 334.050781 C 99.757812 333.785156 99.332031 333.480469 98.9375 333.136719 C 98.539062 332.789062 98.179688 332.40625 97.855469 331.992188 C 97.53125 331.574219 97.25 331.132812 97.015625 330.664062 C 96.777344 330.191406 96.585938 329.703125 96.441406 329.195312 L 87.816406 300.234375 C 87.246094 298.425781 86.46875 296.707031 85.484375 295.085938 C 84.503906 293.464844 83.339844 291.984375 82 290.644531 C 80.660156 289.300781 79.175781 288.140625 77.554688 287.15625 C 75.933594 286.171875 74.21875 285.398438 72.410156 284.828125 L 43.445312 276.199219 C 42.945312 276.054688 42.464844 275.867188 42.003906 275.632812 C 41.539062 275.398438 41.105469 275.121094 40.695312 274.804688 C 40.285156 274.484375 39.90625 274.132812 39.5625 273.742188 C 39.222656 273.351562 38.917969 272.933594 38.65625 272.484375 C 38.394531 272.039062 38.175781 271.570312 38 271.082031 C 37.828125 270.589844 37.703125 270.089844 37.625 269.578125 C 37.546875 269.0625 37.515625 268.546875 37.539062 268.03125 C 37.558594 267.511719 37.628906 267 37.746094 266.492188 L 44.679688 237.066406 C 45.132812 235.15625 45.347656 233.21875 45.320312 231.253906 C 45.289062 229.289062 45.019531 227.359375 44.511719 225.460938 C 44 223.566406 43.261719 221.761719 42.300781 220.046875 C 41.335938 218.335938 40.179688 216.769531 38.824219 215.34375 L 17.71875 193.160156 C 17.367188 192.78125 17.058594 192.371094 16.785156 191.933594 C 16.511719 191.492188 16.28125 191.035156 16.09375 190.554688 C 15.90625 190.074219 15.765625 189.578125 15.671875 189.070312 C 15.578125 188.5625 15.527344 188.050781 15.527344 187.535156 C 15.527344 187.019531 15.578125 186.507812 15.671875 186 C 15.765625 185.496094 15.90625 185 16.09375 184.519531 C 16.28125 184.039062 16.511719 183.578125 16.785156 183.140625 C 17.058594 182.703125 17.367188 182.292969 17.71875 181.914062 L 38.515625 159.882812 C 39.855469 158.453125 41 156.878906 41.949219 155.164062 C 42.898438 153.445312 43.621094 151.640625 44.117188 149.742188 C 44.617188 147.847656 44.875 145.917969 44.890625 143.957031 C 44.90625 141.996094 44.683594 140.0625 44.214844 138.160156 L 37.28125 108.734375 C 37.164062 108.222656 37.09375 107.707031 37.070312 107.183594 C 37.050781 106.660156 37.078125 106.136719 37.15625 105.617188 C 37.230469 105.101562 37.355469 104.59375 37.527344 104.097656 C 37.703125 103.605469 37.917969 103.128906 38.179688 102.675781 C 38.445312 102.222656 38.746094 101.796875 39.089844 101.398438 C 39.433594 101.003906 39.808594 100.640625 40.21875 100.316406 C 40.632812 99.992188 41.070312 99.707031 41.535156 99.464844 C 42 99.222656 42.480469 99.023438 42.984375 98.875 L 71.945312 90.246094 C 73.757812 89.675781 75.472656 88.898438 77.09375 87.917969 C 78.714844 86.933594 80.195312 85.769531 81.539062 84.429688 C 82.878906 83.089844 84.039062 81.609375 85.023438 79.984375 C 86.007812 78.363281 86.785156 76.648438 87.351562 74.839844 L 95.980469 45.875 C 96.125 45.378906 96.3125 44.894531 96.546875 44.433594 C 96.78125 43.96875 97.058594 43.535156 97.378906 43.125 C 97.695312 42.714844 98.050781 42.335938 98.4375 41.996094 C 98.828125 41.652344 99.246094 41.347656 99.695312 41.085938 C 100.140625 40.824219 100.609375 40.605469 101.101562 40.433594 C 101.589844 40.257812 102.089844 40.132812 102.601562 40.054688 C 103.117188 39.976562 103.632812 39.949219 104.152344 39.96875 C 104.667969 39.988281 105.179688 40.058594 105.6875 40.175781 L 135.113281 47.109375 C 137.023438 47.566406 138.960938 47.777344 140.925781 47.75 C 142.890625 47.722656 144.820312 47.453125 146.71875 46.941406 C 148.613281 46.429688 150.417969 45.691406 152.132812 44.730469 C 153.84375 43.765625 155.414062 42.609375 156.835938 41.253906 L 178.867188 20.457031 C 179.246094 20.105469 179.65625 19.796875 180.09375 19.523438 C 180.53125 19.25 180.992188 19.019531 181.472656 18.832031 C 181.953125 18.648438 182.449219 18.503906 182.953125 18.410156 C 183.460938 18.316406 183.972656 18.269531 184.488281 18.269531 C 185.007812 18.269531 185.515625 18.316406 186.023438 18.410156 C 186.53125 18.503906 187.027344 18.648438 187.507812 18.832031 C 187.988281 19.019531 188.449219 19.25 188.886719 19.523438 C 189.324219 19.796875 189.734375 20.105469 190.113281 20.457031 L 212.144531 41.253906 C 213.566406 42.609375 215.136719 43.765625 216.847656 44.730469 C 218.558594 45.691406 220.363281 46.429688 222.261719 46.941406 C 224.160156 47.453125 226.089844 47.722656 228.054688 47.75 C 230.019531 47.777344 231.957031 47.566406 233.867188 47.109375 L 263.292969 40.175781 C 263.804688 40.054688 264.320312 39.984375 264.84375 39.964844 C 265.367188 39.941406 265.890625 39.96875 266.40625 40.046875 C 266.925781 40.125 267.433594 40.25 267.929688 40.421875 C 268.421875 40.59375 268.898438 40.8125 269.351562 41.074219 C 269.804688 41.335938 270.230469 41.640625 270.625 41.980469 C 271.023438 42.324219 271.382812 42.703125 271.710938 43.113281 C 272.035156 43.523438 272.320312 43.960938 272.5625 44.425781 C 272.804688 44.890625 273 45.375 273.152344 45.875 L 281.78125 74.839844 C 282.351562 76.648438 283.125 78.363281 284.109375 79.984375 C 285.09375 81.609375 286.253906 83.089844 287.597656 84.429688 C 288.9375 85.769531 290.417969 86.933594 292.039062 87.917969 C 293.664062 88.898438 295.378906 89.675781 297.1875 90.246094 L 326.148438 98.875 C 326.648438 99.015625 327.128906 99.207031 327.59375 99.441406 C 328.054688 99.675781 328.492188 99.953125 328.902344 100.269531 C 329.3125 100.585938 329.6875 100.941406 330.03125 101.332031 C 330.375 101.722656 330.675781 102.140625 330.941406 102.585938 C 331.203125 103.035156 331.421875 103.503906 331.59375 103.992188 C 331.769531 104.480469 331.894531 104.984375 331.972656 105.496094 C 332.050781 106.007812 332.078125 106.523438 332.058594 107.042969 C 332.039062 107.5625 331.96875 108.074219 331.851562 108.578125 L 325.535156 138.160156 C 325.078125 140.070312 324.863281 142.007812 324.894531 143.972656 C 324.921875 145.9375 325.191406 147.867188 325.703125 149.765625 C 326.214844 151.660156 326.949219 153.464844 327.914062 155.179688 C 328.875 156.890625 330.035156 158.460938 331.386719 159.882812 L 352.1875 181.914062 C 352.53125 182.296875 352.835938 182.710938 353.101562 183.152344 C 353.367188 183.59375 353.59375 184.058594 353.773438 184.542969 C 353.953125 185.023438 354.089844 185.519531 354.175781 186.03125 C 354.265625 186.539062 354.304688 187.050781 354.296875 187.566406 C 354.292969 188.082031 354.238281 188.59375 354.132812 189.097656 C 354.03125 189.605469 353.882812 190.097656 353.691406 190.574219 C 353.496094 191.054688 353.261719 191.511719 352.980469 191.945312 C 352.703125 192.378906 352.386719 192.785156 352.03125 193.160156 Z M 184.875 64.210938 C 182.859375 64.210938 180.84375 64.257812 178.828125 64.359375 C 176.8125 64.457031 174.800781 64.605469 172.792969 64.804688 C 170.785156 65 168.785156 65.246094 166.789062 65.542969 C 164.796875 65.839844 162.808594 66.183594 160.828125 66.578125 C 158.851562 66.972656 156.882812 67.414062 154.925781 67.902344 C 152.972656 68.394531 151.027344 68.929688 149.097656 69.515625 C 147.167969 70.101562 145.253906 70.734375 143.351562 71.414062 C 141.453125 72.09375 139.574219 72.820312 137.710938 73.589844 C 135.84375 74.363281 134.003906 75.179688 132.179688 76.042969 C 130.355469 76.90625 128.554688 77.8125 126.773438 78.761719 C 124.996094 79.714844 123.242188 80.707031 121.511719 81.746094 C 119.78125 82.78125 118.078125 83.859375 116.402344 84.980469 C 114.722656 86.101562 113.074219 87.261719 111.453125 88.464844 C 109.835938 89.664062 108.246094 90.90625 106.6875 92.1875 C 105.125 93.464844 103.601562 94.78125 102.105469 96.136719 C 100.609375 97.492188 99.148438 98.882812 97.722656 100.308594 C 96.296875 101.734375 94.90625 103.195312 93.554688 104.691406 C 92.199219 106.183594 90.882812 107.710938 89.601562 109.269531 C 88.320312 110.828125 87.082031 112.417969 85.878906 114.039062 C 84.679688 115.660156 83.515625 117.308594 82.394531 118.984375 C 81.277344 120.664062 80.195312 122.367188 79.160156 124.097656 C 78.121094 125.828125 77.128906 127.582031 76.179688 129.359375 C 75.226562 131.140625 74.320312 132.941406 73.457031 134.761719 C 72.597656 136.585938 71.777344 138.429688 71.007812 140.292969 C 70.234375 142.15625 69.507812 144.039062 68.828125 145.9375 C 68.148438 147.835938 67.519531 149.75 66.933594 151.683594 C 66.347656 153.613281 65.808594 155.554688 65.320312 157.511719 C 64.828125 159.46875 64.386719 161.4375 63.992188 163.414062 C 63.601562 165.394531 63.253906 167.378906 62.957031 169.375 C 62.664062 171.371094 62.417969 173.371094 62.21875 175.378906 C 62.019531 177.386719 61.871094 179.398438 61.773438 181.410156 C 61.675781 183.425781 61.625 185.441406 61.625 187.460938 C 61.625 189.476562 61.675781 191.492188 61.773438 193.507812 C 61.871094 195.523438 62.019531 197.53125 62.21875 199.539062 C 62.417969 201.546875 62.664062 203.550781 62.957031 205.542969 C 63.253906 207.539062 63.601562 209.527344 63.992188 211.503906 C 64.386719 213.484375 64.828125 215.449219 65.320312 217.40625 C 65.808594 219.363281 66.347656 221.308594 66.933594 223.238281 C 67.519531 225.167969 68.148438 227.082031 68.828125 228.980469 C 69.507812 230.878906 70.234375 232.761719 71.007812 234.625 C 71.777344 236.488281 72.597656 238.332031 73.457031 240.15625 C 74.320312 241.980469 75.226562 243.78125 76.179688 245.558594 C 77.128906 247.339844 78.121094 249.09375 79.160156 250.824219 C 80.195312 252.554688 81.277344 254.257812 82.394531 255.933594 C 83.515625 257.609375 84.679688 259.257812 85.878906 260.878906 C 87.082031 262.5 88.320312 264.089844 89.601562 265.648438 C 90.882812 267.207031 92.199219 268.734375 93.554688 270.230469 C 94.90625 271.722656 96.296875 273.183594 97.722656 274.609375 C 99.148438 276.035156 100.609375 277.425781 102.105469 278.78125 C 103.601562 280.136719 105.125 281.453125 106.6875 282.734375 C 108.246094 284.011719 109.835938 285.253906 111.453125 286.453125 C 113.074219 287.65625 114.722656 288.816406 116.402344 289.9375 C 118.078125 291.058594 119.78125 292.136719 121.511719 293.175781 C 123.242188 294.210938 124.996094 295.207031 126.773438 296.15625 C 128.554688 297.105469 130.355469 298.015625 132.179688 298.875 C 134.003906 299.738281 135.84375 300.554688 137.710938 301.328125 C 139.574219 302.097656 141.453125 302.824219 143.351562 303.503906 C 145.253906 304.183594 147.167969 304.816406 149.097656 305.402344 C 151.027344 305.988281 152.972656 306.527344 154.925781 307.015625 C 156.882812 307.507812 158.851562 307.949219 160.832031 308.339844 C 162.808594 308.734375 164.796875 309.078125 166.789062 309.375 C 168.785156 309.671875 170.785156 309.917969 172.792969 310.117188 C 174.800781 310.3125 176.8125 310.460938 178.828125 310.5625 C 180.84375 310.660156 182.859375 310.710938 184.875 310.710938 C 186.890625 310.710938 188.90625 310.660156 190.921875 310.5625 C 192.9375 310.460938 194.949219 310.3125 196.957031 310.117188 C 198.964844 309.917969 200.964844 309.671875 202.960938 309.375 C 204.953125 309.078125 206.941406 308.734375 208.917969 308.339844 C 210.898438 307.949219 212.867188 307.507812 214.820312 307.015625 C 216.777344 306.527344 218.722656 305.988281 220.652344 305.402344 C 222.582031 304.816406 224.496094 304.183594 226.398438 303.503906 C 228.296875 302.824219 230.175781 302.097656 232.039062 301.328125 C 233.902344 300.554688 235.746094 299.738281 237.570312 298.875 C 239.394531 298.015625 241.195312 297.105469 242.972656 296.15625 C 244.753906 295.207031 246.507812 294.210938 248.238281 293.175781 C 249.96875 292.136719 251.671875 291.058594 253.347656 289.9375 C 255.027344 288.816406 256.675781 287.65625 258.292969 286.453125 C 259.914062 285.253906 261.503906 284.011719 263.0625 282.734375 C 264.625 281.453125 266.148438 280.136719 267.644531 278.78125 C 269.140625 277.425781 270.597656 276.035156 272.027344 274.609375 C 273.453125 273.183594 274.84375 271.722656 276.195312 270.230469 C 277.550781 268.734375 278.867188 267.207031 280.148438 265.648438 C 281.429688 264.089844 282.667969 262.5 283.871094 260.878906 C 285.070312 259.257812 286.234375 257.609375 287.355469 255.933594 C 288.472656 254.257812 289.554688 252.554688 290.589844 250.824219 C 291.625 249.09375 292.621094 247.339844 293.570312 245.558594 C 294.523438 243.78125 295.429688 241.980469 296.292969 240.15625 C 297.152344 238.332031 297.972656 236.488281 298.742188 234.625 C 299.515625 232.761719 300.242188 230.878906 300.921875 228.980469 C 301.601562 227.082031 302.230469 225.167969 302.816406 223.238281 C 303.402344 221.308594 303.941406 219.363281 304.429688 217.40625 C 304.921875 215.449219 305.363281 213.484375 305.757812 211.503906 C 306.148438 209.527344 306.496094 207.539062 306.789062 205.542969 C 307.085938 203.550781 307.332031 201.546875 307.53125 199.539062 C 307.730469 197.53125 307.878906 195.523438 307.976562 193.507812 C 308.074219 191.492188 308.125 189.476562 308.125 187.460938 C 308.125 185.441406 308.074219 183.425781 307.976562 181.410156 C 307.878906 179.398438 307.730469 177.386719 307.53125 175.378906 C 307.332031 173.371094 307.085938 171.371094 306.789062 169.375 C 306.496094 167.378906 306.148438 165.394531 305.757812 163.414062 C 305.363281 161.4375 304.921875 159.46875 304.429688 157.511719 C 303.941406 155.554688 303.402344 153.613281 302.816406 151.683594 C 302.230469 149.75 301.601562 147.835938 300.921875 145.9375 C 300.242188 144.039062 299.515625 142.15625 298.742188 140.292969 C 297.972656 138.429688 297.152344 136.585938 296.292969 134.761719 C 295.429688 132.941406 294.523438 131.140625 293.570312 129.359375 C 292.621094 127.582031 291.628906 125.828125 290.589844 124.097656 C 289.554688 122.367188 288.472656 120.664062 287.355469 118.984375 C 286.234375 117.308594 285.070312 115.660156 283.871094 114.039062 C 282.667969 112.417969 281.429688 110.828125 280.148438 109.269531 C 278.867188 107.710938 277.550781 106.183594 276.195312 104.691406 C 274.84375 103.195312 273.453125 101.734375 272.027344 100.308594 C 270.597656 98.882812 269.140625 97.492188 267.644531 96.136719 C 266.148438 94.78125 264.625 93.464844 263.0625 92.1875 C 261.503906 90.90625 259.914062 89.664062 258.292969 88.464844 C 256.675781 87.261719 255.027344 86.101562 253.347656 84.980469 C 251.671875 83.859375 249.96875 82.78125 248.238281 81.746094 C 246.507812 80.707031 244.753906 79.714844 242.972656 78.761719 C 241.195312 77.8125 239.394531 76.90625 237.570312 76.042969 C 235.746094 75.179688 233.902344 74.363281 232.039062 73.589844 C 230.175781 72.820312 228.296875 72.09375 226.398438 71.414062 C 224.496094 70.734375 222.582031 70.101562 220.652344 69.515625 C 218.722656 68.929688 216.777344 68.394531 214.820312 67.902344 C 212.867188 67.414062 210.898438 66.972656 208.917969 66.578125 C 206.941406 66.183594 204.953125 65.839844 202.960938 65.542969 C 200.964844 65.246094 198.964844 65 196.957031 64.804688 C 194.949219 64.605469 192.9375 64.457031 190.921875 64.359375 C 188.90625 64.257812 186.890625 64.210938 184.875 64.210938 Z M 184.875 295.304688 C 183.109375 295.304688 181.347656 295.261719 179.582031 295.171875 C 177.820312 295.085938 176.0625 294.957031 174.304688 294.785156 C 172.546875 294.609375 170.796875 294.394531 169.050781 294.136719 C 167.304688 293.878906 165.566406 293.574219 163.835938 293.230469 C 162.105469 292.886719 160.382812 292.5 158.671875 292.070312 C 156.960938 291.640625 155.257812 291.171875 153.570312 290.660156 C 151.878906 290.148438 150.207031 289.59375 148.542969 289 C 146.882812 288.40625 145.234375 287.769531 143.605469 287.09375 C 141.972656 286.417969 140.359375 285.703125 138.765625 284.949219 C 137.171875 284.195312 135.59375 283.402344 134.039062 282.570312 C 132.480469 281.738281 130.945312 280.867188 129.433594 279.960938 C 127.917969 279.054688 126.425781 278.109375 124.960938 277.128906 C 123.492188 276.148438 122.050781 275.132812 120.632812 274.082031 C 119.214844 273.027344 117.824219 271.945312 116.460938 270.824219 C 115.09375 269.703125 113.757812 268.550781 112.453125 267.367188 C 111.144531 266.179688 109.867188 264.964844 108.617188 263.714844 C 107.371094 262.46875 106.152344 261.191406 104.96875 259.882812 C 103.78125 258.574219 102.628906 257.238281 101.511719 255.875 C 100.390625 254.511719 99.304688 253.121094 98.253906 251.703125 C 97.203125 250.285156 96.1875 248.839844 95.207031 247.375 C 94.226562 245.90625 93.28125 244.417969 92.375 242.902344 C 91.46875 241.386719 90.597656 239.851562 89.765625 238.296875 C 88.933594 236.738281 88.140625 235.164062 87.386719 233.570312 C 86.628906 231.972656 85.914062 230.359375 85.242188 228.730469 C 84.566406 227.097656 83.929688 225.453125 83.335938 223.789062 C 82.742188 222.128906 82.1875 220.453125 81.675781 218.765625 C 81.164062 217.074219 80.691406 215.375 80.261719 213.664062 C 79.835938 211.953125 79.449219 210.230469 79.101562 208.5 C 78.757812 206.769531 78.457031 205.03125 78.199219 203.285156 C 77.941406 201.539062 77.722656 199.785156 77.550781 198.03125 C 77.378906 196.273438 77.246094 194.515625 77.160156 192.75 C 77.074219 190.988281 77.03125 189.222656 77.03125 187.460938 C 77.03125 185.695312 77.074219 183.929688 77.160156 182.167969 C 77.246094 180.40625 77.378906 178.644531 77.550781 176.890625 C 77.722656 175.132812 77.941406 173.382812 78.199219 171.636719 C 78.457031 169.890625 78.757812 168.152344 79.101562 166.421875 C 79.449219 164.6875 79.835938 162.96875 80.261719 161.253906 C 80.691406 159.542969 81.164062 157.84375 81.675781 156.152344 C 82.1875 154.464844 82.742188 152.789062 83.335938 151.128906 C 83.929688 149.464844 84.566406 147.820312 85.242188 146.191406 C 85.914062 144.558594 86.628906 142.945312 87.386719 141.351562 C 88.140625 139.753906 88.933594 138.179688 89.765625 136.621094 C 90.597656 135.066406 91.46875 133.53125 92.375 132.015625 C 93.28125 130.503906 94.226562 129.011719 95.207031 127.542969 C 96.1875 126.078125 97.203125 124.632812 98.253906 123.21875 C 99.304688 121.800781 100.390625 120.410156 101.511719 119.042969 C 102.628906 117.679688 103.78125 116.34375 104.96875 115.035156 C 106.152344 113.726562 107.371094 112.449219 108.617188 111.203125 C 109.867188 109.953125 111.144531 108.738281 112.453125 107.550781 C 113.757812 106.367188 115.09375 105.214844 116.460938 104.09375 C 117.824219 102.976562 119.214844 101.890625 120.632812 100.839844 C 122.050781 99.789062 123.492188 98.769531 124.960938 97.789062 C 126.425781 96.808594 127.917969 95.867188 129.433594 94.957031 C 130.945312 94.050781 132.480469 93.183594 134.039062 92.351562 C 135.59375 91.519531 137.171875 90.722656 138.765625 89.96875 C 140.359375 89.214844 141.972656 88.5 143.605469 87.824219 C 145.234375 87.148438 146.882812 86.515625 148.542969 85.921875 C 150.207031 85.324219 151.878906 84.773438 153.570312 84.257812 C 155.257812 83.746094 156.960938 83.277344 158.671875 82.847656 C 160.382812 82.417969 162.105469 82.03125 163.835938 81.6875 C 165.566406 81.34375 167.304688 81.042969 169.050781 80.78125 C 170.796875 80.523438 172.546875 80.308594 174.304688 80.136719 C 176.0625 79.960938 177.820312 79.832031 179.582031 79.746094 C 181.347656 79.660156 183.109375 79.617188 184.875 79.617188 C 186.640625 79.617188 188.402344 79.660156 190.167969 79.746094 C 191.929688 79.832031 193.6875 79.960938 195.445312 80.136719 C 197.203125 80.308594 198.953125 80.523438 200.699219 80.78125 C 202.445312 81.042969 204.183594 81.34375 205.914062 81.6875 C 207.644531 82.03125 209.367188 82.417969 211.078125 82.847656 C 212.789062 83.277344 214.492188 83.746094 216.179688 84.257812 C 217.871094 84.773438 219.542969 85.324219 221.207031 85.921875 C 222.867188 86.515625 224.515625 87.148438 226.144531 87.824219 C 227.777344 88.5 229.386719 89.214844 230.984375 89.96875 C 232.578125 90.722656 234.15625 91.519531 235.710938 92.351562 C 237.269531 93.183594 238.804688 94.050781 240.316406 94.957031 C 241.832031 95.867188 243.320312 96.808594 244.789062 97.789062 C 246.257812 98.769531 247.699219 99.789062 249.117188 100.839844 C 250.535156 101.890625 251.925781 102.976562 253.289062 104.09375 C 254.65625 105.214844 255.992188 106.367188 257.296875 107.550781 C 258.605469 108.738281 259.882812 109.953125 261.132812 111.203125 C 262.378906 112.449219 263.597656 113.726562 264.78125 115.035156 C 265.96875 116.34375 267.121094 117.679688 268.238281 119.042969 C 269.359375 120.410156 270.445312 121.800781 271.496094 123.21875 C 272.546875 124.632812 273.5625 126.078125 274.542969 127.542969 C 275.523438 129.011719 276.46875 130.503906 277.375 132.015625 C 278.28125 133.53125 279.152344 135.066406 279.984375 136.621094 C 280.816406 138.179688 281.609375 139.753906 282.363281 141.351562 C 283.117188 142.945312 283.835938 144.558594 284.507812 146.191406 C 285.183594 147.820312 285.820312 149.464844 286.414062 151.128906 C 287.007812 152.789062 287.5625 154.464844 288.074219 156.152344 C 288.585938 157.84375 289.058594 159.542969 289.488281 161.253906 C 289.914062 162.96875 290.300781 164.6875 290.644531 166.421875 C 290.992188 168.152344 291.292969 169.890625 291.550781 171.636719 C 291.808594 173.382812 292.027344 175.132812 292.199219 176.890625 C 292.371094 178.644531 292.503906 180.40625 292.589844 182.167969 C 292.675781 183.929688 292.71875 185.695312 292.71875 187.460938 C 292.71875 189.222656 292.675781 190.988281 292.589844 192.75 C 292.503906 194.515625 292.371094 196.273438 292.199219 198.03125 C 292.027344 199.785156 291.808594 201.539062 291.550781 203.285156 C 291.292969 205.03125 290.992188 206.769531 290.644531 208.5 C 290.300781 210.230469 289.914062 211.953125 289.488281 213.664062 C 289.058594 215.375 288.585938 217.074219 288.074219 218.765625 C 287.5625 220.453125 287.007812 222.128906 286.414062 223.789062 C 285.820312 225.453125 285.183594 227.097656 284.507812 228.730469 C 283.835938 230.359375 283.117188 231.972656 282.363281 233.570312 C 281.609375 235.164062 280.816406 236.738281 279.984375 238.296875 C 279.152344 239.851562 278.28125 241.386719 277.375 242.902344 C 276.46875 244.417969 275.523438 245.90625 274.542969 247.375 C 273.5625 248.839844 272.546875 250.285156 271.496094 251.703125 C 270.445312 253.121094 269.359375 254.511719 268.238281 255.875 C 267.121094 257.238281 265.96875 258.574219 264.78125 259.882812 C 263.597656 261.191406 262.378906 262.46875 261.132812 263.714844 C 259.882812 264.964844 258.605469 266.179688 257.296875 267.367188 C 255.992188 268.550781 254.65625 269.703125 253.289062 270.824219 C 251.925781 271.945312 250.535156 273.027344 249.117188 274.082031 C 247.699219 275.132812 246.257812 276.148438 244.789062 277.128906 C 243.320312 278.109375 241.832031 279.054688 240.316406 279.960938 C 238.804688 280.867188 237.269531 281.738281 235.710938 282.570312 C 234.15625 283.402344 232.578125 284.195312 230.984375 284.949219 C 229.386719 285.703125 227.777344 286.417969 226.144531 287.09375 C 224.515625 287.769531 222.867188 288.40625 221.207031 289 C 219.542969 289.59375 217.871094 290.148438 216.179688 290.660156 C 214.492188 291.171875 212.789062 291.640625 211.078125 292.070312 C 209.367188 292.5 207.644531 292.886719 205.914062 293.230469 C 204.183594 293.574219 202.445312 293.878906 200.699219 294.136719 C 198.953125 294.394531 197.203125 294.609375 195.445312 294.785156 C 193.6875 294.957031 191.929688 295.085938 190.167969 295.171875 C 188.402344 295.261719 186.640625 295.304688 184.875 295.304688 Z M 184.875 295.304688 " fill-opacity="1" fill-rule="nonzero"/></g></svg>