<svg xmlns="http://www.w3.org/2000/svg" version="1.1" xmlns:xlink="http://www.w3.org/1999/xlink" xmlns:svgjs="http://svgjs.com/svgjs" width="480" height="520" preserveAspectRatio="none" viewBox="0 0 480 520"><g mask="url(&quot;#SvgjsMask1091&quot;)" fill="none"><path d="M480 0L327.39 0L480 39.97z" fill="rgba(255, 255, 255, .1)"></path><path d="M327.39 0L480 39.97L480 135.98000000000002L298.28 0z" fill="rgba(255, 255, 255, .075)"></path><path d="M298.28 0L480 135.98000000000002L480 199.93L211.7 0z" fill="rgba(255, 255, 255, .05)"></path><path d="M211.7 0L480 199.93L480 274.15L162.63 0z" fill="rgba(255, 255, 255, .025)"></path><path d="M0 520L225.45 520L0 429.03z" fill="rgba(0, 0, 0, .1)"></path><path d="M0 429.03L225.45 520L245.85999999999999 520L0 399.83z" fill="rgba(0, 0, 0, .075)"></path><path d="M0 399.83L245.85999999999999 520L365.64 520L0 280.26z" fill="rgba(0, 0, 0, .05)"></path><path d="M0 280.26L365.64 520L398.06 520L0 187.57z" fill="rgba(0, 0, 0, .025)"></path></g><defs><mask id="SvgjsMask1091"><rect width="480" height="520" fill="#ffffff"></rect></mask></defs></svg>